<?xml version="1.0" standalone="no"?>
<!DOCTYPE svg PUBLIC "-//W3C//DTD SVG 20010904//EN"
 "http://www.w3.org/TR/2001/REC-SVG-20010904/DTD/svg10.dtd">
<svg version="1.0" xmlns="http://www.w3.org/2000/svg"
 width="640.000000pt" height="640.000000pt" viewBox="0 0 640.000000 640.000000"
 preserveAspectRatio="xMidYMid meet">
<metadata>
Created by potrace 1.11, written by Peter Selinger 2001-2013
</metadata>
<g transform="translate(0.000000,640.000000) scale(0.100000,-0.100000)"
fill="#000000" stroke="none">
<path d="M0 3199 c0 -2867 2 -3201 15 -3195 9 3 83 51 165 107 l150 100 0
2940 0 2939 2805 0 2805 0 233 155 232 155 -3203 0 -3202 0 0 -3201z"/>
<path d="M1350 4535 l0 -265 555 0 556 0 -4 -987 c-3 -1090 1 -1022 -67 -1160
-55 -111 -171 -210 -300 -254 -95 -33 -275 -33 -380 -1 -139 44 -246 106 -388
225 -46 38 -85 67 -86 66 -16 -19 -319 -446 -323 -455 -2 -6 21 -33 51 -60
224 -192 437 -298 711 -351 126 -24 397 -24 518 0 394 79 685 340 791 709 63
219 60 142 63 1531 l4 1267 -851 0 -850 0 0 -265z"/>
<path d="M3190 4532 l0 -270 508 -5 c524 -5 580 -9 728 -52 228 -66 328 -211
341 -490 13 -296 -73 -496 -259 -595 -76 -41 -218 -76 -359 -89 -63 -6 -304
-11 -536 -11 l-423 0 0 -270 0 -270 383 0 382 -1 97 -137 c53 -75 165 -234
249 -352 84 -118 226 -320 317 -447 l164 -233 375 0 375 0 -18 27 c-16 25
-235 329 -474 658 -48 66 -162 223 -253 349 l-165 230 81 31 c432 162 650 482
673 987 16 326 -61 618 -209 804 -135 168 -329 276 -608 338 -237 52 -317 58
-861 63 l-508 5 0 -270z"/>
</g>
</svg>
